<svg width="18" height="19" viewBox="0 0 18 19" fill="none" xmlns="http://www.w3.org/2000/svg">
<path d="M14.7702 20.8758C13.992 20.87 13.2172 20.7723 12.4619 20.5848C9.85372 19.9555 7.1679 18.3591 4.90045 16.0897C2.63301 13.8203 1.03465 11.134 0.405356 8.52825C-0.257268 5.78723 0.215325 3.4422 1.73458 1.92294L2.16837 1.48916C2.56195 1.09637 3.09528 0.875774 3.65132 0.875774C4.20736 0.875774 4.74069 1.09637 5.13426 1.48916L7.62706 3.98144C8.02009 4.37489 8.24086 4.90826 8.24086 5.46438C8.24086 6.0205 8.02009 6.55387 7.62706 6.94732L6.15457 8.41931C6.86047 9.65799 7.82058 10.8977 8.9553 12.0324C10.09 13.1671 11.3307 14.1277 12.5689 14.8336L14.0409 13.3611C14.2356 13.1663 14.4668 13.0118 14.7212 12.9064C14.9757 12.801 15.2484 12.7467 15.5238 12.7467C15.7993 12.7467 16.072 12.801 16.3264 12.9064C16.5809 13.0118 16.8121 13.1663 17.0068 13.3611L19.4991 15.8534C19.8922 16.2467 20.113 16.78 20.113 17.3361C20.113 17.8922 19.8922 18.4255 19.4991 18.8188L19.0648 19.2526C17.9937 20.3256 16.5113 20.8758 14.7702 20.8758ZM3.65132 2.36718C3.57189 2.36678 3.49318 2.38225 3.41981 2.41265C3.34643 2.44306 3.27986 2.48781 3.224 2.54427L2.78971 2.97806C1.65201 4.11576 1.3197 5.96284 1.85398 8.17605C2.41959 10.5206 3.87568 12.9567 5.95359 15.0341C8.0315 17.1115 10.4671 18.5661 12.8121 19.1337C15.0259 19.6679 16.872 19.3356 18.0097 18.1979L18.4435 17.7641C18.5568 17.6507 18.6205 17.4969 18.6205 17.3366C18.6205 17.1762 18.5568 17.0224 18.4435 16.909L15.9517 14.4167C15.8382 14.3034 15.6844 14.2397 15.5241 14.2397C15.3637 14.2397 15.2099 14.3034 15.0965 14.4167L13.2305 16.2827C13.1185 16.3947 12.9738 16.4682 12.8173 16.4925C12.6608 16.5169 12.5006 16.4908 12.36 16.418C10.8302 15.627 9.2881 14.4754 7.90017 13.0875C6.51224 11.6996 5.3631 10.1584 4.57014 8.62874C4.49732 8.48811 4.47113 8.32795 4.49537 8.17144C4.5196 8.01494 4.593 7.8702 4.70495 7.75818L6.57144 5.8922C6.68478 5.77877 6.74845 5.62498 6.74845 5.46463C6.74845 5.30428 6.68478 5.15049 6.57144 5.03706L4.07914 2.54427C4.0231 2.48791 3.95643 2.44323 3.88299 2.41283C3.80955 2.38243 3.7308 2.36691 3.65132 2.36718Z" fill="#57E178"/>
<path d="M15.5671 11.905C15.3692 11.905 15.1794 11.8264 15.0395 11.6865C14.8995 11.5465 14.8209 11.3567 14.8209 11.1588C14.8195 9.84978 14.2988 8.59474 13.3732 7.66905C12.4476 6.74336 11.1926 6.2226 9.88356 6.22102C9.68565 6.22102 9.49586 6.14241 9.35592 6.00247C9.21598 5.86253 9.13736 5.67273 9.13736 5.47483C9.13736 5.27692 9.21598 5.08713 9.35592 4.94719C9.49586 4.80725 9.68565 4.72863 9.88356 4.72863C13.429 4.72863 16.3133 7.61392 16.3133 11.1588C16.3133 11.3567 16.2347 11.5465 16.0947 11.6865C15.9548 11.8264 15.765 11.905 15.5671 11.905Z" fill="#57E178"/>
<path d="M18.721 11.905C18.5231 11.905 18.3333 11.8264 18.1934 11.6865C18.0535 11.5465 17.9748 11.3567 17.9748 11.1588C17.9748 6.69709 14.3433 3.06711 9.88356 3.06711C9.68565 3.06711 9.49586 2.98849 9.35592 2.84855C9.21598 2.70861 9.13736 2.51882 9.13736 2.32091C9.13736 2.12301 9.21598 1.93321 9.35592 1.79327C9.49586 1.65334 9.68565 1.57472 9.88356 1.57472C15.1681 1.57472 19.4672 5.87429 19.4672 11.1588C19.4672 11.3567 19.3886 11.5465 19.2487 11.6865C19.1087 11.8264 18.9189 11.905 18.721 11.905Z" fill="#57E178"/>
</svg>
