<svg width="5" height="5" viewBox="0 0 5 5" fill="none" xmlns="http://www.w3.org/2000/svg">
<g clip-path="url(#clip0_21_43)">
<path d="M4.68888 1.28707V1.18263C4.68888 0.984504 4.52676 0.822388 4.32862 0.822388L4.32851 0.822485L4.3283 0.822643L4.32862 0.822388H0.652217L0.653637 0.823543L0.652217 0.822485C0.454087 0.822485 0.291962 0.984601 0.291962 1.18274V3.6437C0.291962 3.84183 0.454078 4.00394 0.652217 4.00394H0.780463H4.18944C4.56736 3.99955 4.68087 3.90595 4.68946 3.64398L4.68888 1.28707ZM4.06022 0.910571L2.48459 2.07117L0.91921 0.910571H4.06022ZM0.869554 1.81236L2.32906 2.81769L2.33052 2.8187L0.868717 3.83517L0.869554 1.81236ZM0.907279 3.91576L2.40773 2.87242L2.43405 2.89074C2.44918 2.90127 2.4668 2.90654 2.48442 2.90654C2.5019 2.90654 2.56179 2.87215 2.56179 2.87215L4.06264 3.91576H0.907279ZM4.10029 3.83454L2.63937 2.81871L3.45413 2.25749L4.10029 1.81241V3.83454Z" fill="#57E178"/>
</g>
<defs>
<clipPath id="clip0_21_43">
<rect width="5" height="5" fill="white"/>
</clipPath>
</defs>
</svg>
