<svg width="5" height="5" viewBox="0 0 5 5" fill="none" xmlns="http://www.w3.org/2000/svg">
<g clip-path="url(#clip0_21_38)">
<path d="M3.40557 4.39512C3.2528 4.39399 3.10071 4.37481 2.95244 4.33799C2.44043 4.21445 1.91318 3.90108 1.46807 3.45557C1.02295 3.01006 0.709179 2.48272 0.585644 1.97119C0.455566 1.43311 0.548339 0.972755 0.846581 0.674513L0.931738 0.589357C1.009 0.51225 1.1137 0.468945 1.22285 0.468945C1.33201 0.468945 1.4367 0.51225 1.51396 0.589357L2.00332 1.07861C2.08047 1.15585 2.12381 1.26056 2.12381 1.36973C2.12381 1.4789 2.08047 1.5836 2.00332 1.66084L1.71426 1.94981C1.85283 2.19297 2.04131 2.43633 2.26406 2.65908C2.48682 2.88184 2.73037 3.07041 2.97344 3.20899L3.2624 2.91992C3.30063 2.88168 3.34601 2.85135 3.39596 2.83066C3.44591 2.80996 3.49945 2.79931 3.55351 2.79931C3.60758 2.79931 3.66112 2.80996 3.71107 2.83066C3.76102 2.85135 3.8064 2.88168 3.84463 2.91992L4.33389 3.40918C4.41106 3.48639 4.45441 3.59108 4.45441 3.70025C4.45441 3.80941 4.41106 3.9141 4.33389 3.99131L4.24863 4.07647C4.03838 4.28711 3.74736 4.39512 3.40557 4.39512ZM1.22285 0.76172C1.20726 0.761643 1.19181 0.764678 1.1774 0.770648C1.163 0.776617 1.14993 0.785401 1.13896 0.796486L1.05371 0.881642C0.83037 1.10498 0.765136 1.46758 0.870019 1.90205C0.981054 2.36231 1.26689 2.84053 1.6748 3.24834C2.08271 3.65615 2.56084 3.9417 3.02119 4.05313C3.45576 4.15801 3.81816 4.09277 4.0415 3.86944L4.12666 3.78428C4.14891 3.76201 4.16141 3.73182 4.16141 3.70034C4.16141 3.66887 4.14891 3.63867 4.12666 3.61641L3.6375 3.12715C3.61523 3.1049 3.58504 3.0924 3.55356 3.0924C3.52209 3.0924 3.4919 3.1049 3.46963 3.12715L3.10332 3.49346C3.08134 3.51545 3.05293 3.52988 3.02221 3.53465C2.99149 3.53943 2.96004 3.5343 2.93242 3.52002C2.63213 3.36475 2.32939 3.13867 2.05693 2.86621C1.78447 2.59375 1.55889 2.29121 1.40322 1.99092C1.38893 1.96331 1.38379 1.93187 1.38854 1.90115C1.3933 1.87042 1.40771 1.84201 1.42969 1.82002L1.79609 1.45371C1.81834 1.43145 1.83084 1.40125 1.83084 1.36978C1.83084 1.3383 1.81834 1.30811 1.79609 1.28584L1.30684 0.796486C1.29583 0.785421 1.28275 0.77665 1.26833 0.770682C1.25391 0.764714 1.23845 0.761668 1.22285 0.76172Z" fill="#57E178"/>
<path d="M3.56201 2.63409C3.52316 2.63409 3.4859 2.61865 3.45843 2.59118C3.43096 2.56371 3.41553 2.52645 3.41553 2.4876C3.41524 2.23062 3.31304 1.98425 3.13134 1.80253C2.94963 1.6208 2.70327 1.51857 2.44629 1.51826C2.40744 1.51826 2.37018 1.50283 2.34271 1.47536C2.31524 1.44789 2.2998 1.41063 2.2998 1.37178C2.2998 1.33293 2.31524 1.29567 2.34271 1.2682C2.37018 1.24073 2.40744 1.2253 2.44629 1.2253C3.14229 1.2253 3.7085 1.7917 3.7085 2.4876C3.7085 2.52645 3.69306 2.56371 3.66559 2.59118C3.63812 2.61865 3.60086 2.63409 3.56201 2.63409Z" fill="#57E178"/>
<path d="M4.18115 2.63409C4.1423 2.63409 4.10504 2.61865 4.07757 2.59118C4.0501 2.56371 4.03467 2.52645 4.03467 2.4876C4.03467 1.61172 3.32178 0.899124 2.44629 0.899124C2.40744 0.899124 2.37018 0.883691 2.34271 0.85622C2.31524 0.828749 2.2998 0.79149 2.2998 0.75264C2.2998 0.71379 2.31524 0.676531 2.34271 0.64906C2.37018 0.621589 2.40744 0.606155 2.44629 0.606155C3.48369 0.606155 4.32764 1.4502 4.32764 2.4876C4.32764 2.52645 4.3122 2.56371 4.28473 2.59118C4.25726 2.61865 4.22 2.63409 4.18115 2.63409Z" fill="#57E178"/>
</g>
<defs>
<clipPath id="clip0_21_38">
<rect width="5" height="5" fill="white"/>
</clipPath>
</defs>
</svg>
