<svg width="40" height="40" viewBox="0 0 40 40" fill="none" xmlns="http://www.w3.org/2000/svg">
<g clip-path="url(#clip0_18_9)">
<path d="M20 40C31.0457 40 40 31.0457 40 20C40 8.9543 31.0457 0 20 0C8.9543 0 0 8.9543 0 20C0 31.0457 8.9543 40 20 40Z" fill="#57E178"/>
<path d="M15 15C12.25 17.75 12.25 22.25 15 25C17.75 27.75 22.25 27.75 25 25L15 15Z" fill="#FACC20"/>
<path d="M15 15L25 25C27.75 22.25 27.75 17.75 25 15C22.25 12.25 17.75 12.25 15 15Z" fill="#F7A90B"/>
<path d="M20 25.1875C22.865 25.1875 25.1875 22.865 25.1875 20C25.1875 17.135 22.865 14.8125 20 14.8125C17.135 14.8125 14.8125 17.135 14.8125 20C14.8125 22.865 17.135 25.1875 20 25.1875Z" fill="#FDEF34"/>
<path d="M22.5 20.6875C22.375 20.4375 22.0625 19.625 20.375 19.3125V17.25C20.8125 17.375 21.0625 17.6875 21.1875 18.0625C21.3125 18.4375 21.5 18.5625 21.8125 18.5625C22 18.5625 23.0625 18.25 21.9375 16.9375C21.75 16.6875 21.4375 16.375 20.375 16.25V15.4375H19.75V16.25C17.8125 16.4375 17.625 17.75 17.625 18.3125C17.625 20 19.3125 20.3125 19.75 20.4375V22.75C18.9375 22.5625 18.75 21.75 18.6875 21.4375C18.5625 21.0625 18.25 21.0625 18.0625 21.0625C17.5625 21.0625 17.4375 21.5625 17.4375 21.6875C17.4375 21.9375 17.5625 22.875 18.75 23.5C19 23.625 19.375 23.75 19.75 23.75V24.5625H20.375V23.75C20.875 23.6875 21.25 23.5625 21.625 23.375C22.5625 22.8125 22.875 21.75 22.5 20.6875ZM19.75 19.125C19.25 18.875 18.875 18.8125 18.875 18.1875C18.875 17.9375 18.9375 17.4375 19.75 17.25V19.125ZM20.375 22.8125V20.625C21.4375 20.9375 21.4375 21.375 21.4375 21.6875C21.4375 21.9375 21.375 22.5625 20.375 22.8125Z" fill="#DBA92C"/>
<g opacity="0.3">
<path d="M23.3125 13.75L13.75 23.3125C13.625 23.125 13.5 22.875 13.4375 22.625L22.625 13.4375C22.875 13.5625 23.125 13.625 23.3125 13.75Z" fill="white"/>
<path d="M25.25 15.25L15.25 25.25C15.1875 25.1875 15.0625 25.0625 15 25C14.6875 24.6875 14.375 24.3125 14.125 23.9375L23.9375 14.125C24.3125 14.375 24.6875 14.6875 25 15C25.125 15.125 25.1875 15.1875 25.25 15.25Z" fill="white"/>
</g>
<path d="M25.0625 15.3125L23.875 14.9375L25.0625 14.5625L25.5 13.3125L25.875 14.5625L27.0625 14.9375L25.875 15.3125L25.5 16.5L25.0625 15.3125Z" fill="white"/>
<path d="M24.0625 13.375L23.3125 13.125L24.0625 12.875L24.3125 12.1875L24.5 12.875L25.25 13.125L24.5 13.375L24.3125 14.0625L24.0625 13.375Z" fill="white"/>
<path d="M13.625 30.6875C15.25 32.0625 17.3125 33.0625 19.5625 33.4375C21.75 33.875 24.125 33.6875 26.3125 32.9375C28.125 32.3125 29.75 31.375 31.1875 30.0625L33.6875 32.5625V24.9375H26.0625L28.625 27.5C27.6875 28.625 26.5625 29.625 25.1875 30.3125C23.5625 31.1875 21.6875 31.625 19.75 31.5625C17.8125 31.5 15.875 30.9375 14.1875 29.875C12.5 28.8125 11 27.3125 9.9375 25.5C10.6875 27.5 11.9375 29.3125 13.625 30.6875Z" fill="#474E5E"/>
<path opacity="0.1" d="M21.625 32.4375C26.875 32.4375 31.4375 29.375 33.6875 25H26.0625L28.625 27.5625C27.6875 28.6875 26.5625 29.6875 25.1875 30.375C23.5625 31.25 21.6875 31.6875 19.75 31.625C17.8125 31.5625 15.875 31 14.1875 29.9375C12.5 28.875 11 27.375 9.9375 25.5625C10 25.6875 10.0625 25.8125 10.0625 25.875C12.4375 29.8125 16.6875 32.4375 21.625 32.4375Z" fill="white"/>
<path d="M26.375 9.3125C24.75 7.9375 22.6875 6.9375 20.4375 6.5625C18.25 6.125 15.875 6.3125 13.6875 7.0625C11.875 7.6875 10.25 8.625 8.8125 9.9375L6.3125 7.4375V15.0625H13.9375L11.375 12.5C12.3125 11.375 13.4375 10.375 14.8125 9.6875C16.4375 8.8125 18.3125 8.375 20.25 8.4375C22.1875 8.5 24.125 9.0625 25.8125 10.125C27.5 11.1875 29 12.6875 30.0625 14.5C29.3125 12.5 28.0625 10.6875 26.375 9.3125Z" fill="#194950"/>
<path opacity="0.1" d="M18.375 7.5625C13.125 7.5625 8.5625 10.625 6.3125 15H13.9375L11.375 12.4375C12.3125 11.3125 13.4375 10.3125 14.8125 9.625C16.4375 8.75 18.3125 8.3125 20.25 8.375C22.1875 8.4375 24.125 9 25.8125 10.0625C27.5 11.125 29 12.625 30.0625 14.4375C30 14.3125 29.9375 14.1875 29.9375 14.125C27.5625 10.1875 23.3125 7.5625 18.375 7.5625Z" fill="#231F20"/>
</g>
<defs>
<clipPath id="clip0_18_9">
<rect width="40" height="40" fill="white"/>
</clipPath>
</defs>
</svg>
