<svg width="64" height="64" viewBox="0 0 64 64" fill="none" xmlns="http://www.w3.org/2000/svg">
<g clip-path="url(#clip0_18_9)">
<path d="M32 64C49.6731 64 64 49.6731 64 32C64 14.3269 49.6731 0 32 0C14.3269 0 0 14.3269 0 32C0 49.6731 14.3269 64 32 64Z" fill="#57E178"/>
<path d="M24 24C19.6 28.4 19.6 35.6 24 40C28.4 44.4 35.6 44.4 40 40L24 24Z" fill="#FACC20"/>
<path d="M24 24L40 40C44.4 35.6 44.4 28.4 40 24C35.6 19.6 28.4 19.6 24 24Z" fill="#F7A90B"/>
<path d="M32 40.3C36.584 40.3 40.3 36.584 40.3 32C40.3 27.416 36.584 23.7 32 23.7C27.416 23.7 23.7 27.416 23.7 32C23.7 36.584 27.416 40.3 32 40.3Z" fill="#FDEF34"/>
<path d="M36 33.1C35.8 32.7 35.3 31.4 32.6 30.9V27.6C33.3 27.8 33.7 28.3 33.9 28.9C34.1 29.5 34.4 29.7 34.9 29.7C35.2 29.7 36.9 29.2 35.1 27.1C34.8 26.7 34.3 26.2 32.6 26V24.7H31.6V26C28.5 26.3 28.2 28.4 28.2 29.3C28.2 32 30.9 32.5 31.6 32.7V36.4C30.3 36.1 30 34.8 29.9 34.3C29.7 33.7 29.2 33.7 28.9 33.7C28.1 33.7 27.9 34.5 27.9 34.7C27.9 35.1 28.1 36.6 30 37.6C30.4 37.8 31 38 31.6 38V39.3H32.6V38C33.4 37.9 34 37.7 34.6 37.4C36.1 36.5 36.6 34.8 36 33.1ZM31.6 30.6C30.8 30.2 30.2 30.1 30.2 29.1C30.2 28.7 30.3 27.9 31.6 27.6V30.6ZM32.6 36.5V33C34.3 33.5 34.3 34.2 34.3 34.7C34.3 35.1 34.2 36.1 32.6 36.5Z" fill="#DBA92C"/>
<g opacity="0.3">
<path d="M37.3 22L22 37.3C21.8 37 21.6 36.6 21.5 36.2L36.2 21.5C36.6 21.7 37 21.8 37.3 22Z" fill="white"/>
<path d="M40.4 24.4L24.4 40.4C24.3 40.3 24.1 40.1 24 40C23.5 39.5 23 38.9 22.6 38.3L38.3 22.6C38.9 23 39.5 23.5 40 24C40.2 24.2 40.3 24.3 40.4 24.4Z" fill="white"/>
</g>
<path d="M40.1 24.5L38.2 23.9L40.1 23.3L40.8 21.3L41.4 23.3L43.3 23.9L41.4 24.5L40.8 26.4L40.1 24.5Z" fill="white"/>
<path d="M38.5 21.4L37.3 21L38.5 20.6L38.9 19.5L39.2 20.6L40.4 21L39.2 21.4L38.9 22.5L38.5 21.4Z" fill="white"/>
<path d="M21.8 49.1C24.4 51.3 27.7 52.9 31.3 53.5C34.8 54.2 38.6 53.9 42.1 52.7C45 51.7 47.6 50.2 49.9 48.1L53.9 52.1V39.9H41.7L45.8 44C44.3 45.8 42.5 47.4 40.3 48.5C37.7 49.9 34.7 50.6 31.6 50.5C28.5 50.4 25.4 49.5 22.7 47.8C20 46.1 17.6 43.7 15.9 40.8C17.1 44 19.1 46.9 21.8 49.1Z" fill="#474E5E"/>
<path opacity="0.1" d="M34.6 51.9C43 51.9 50.3 47 53.9 40H41.7L45.8 44.1C44.3 45.9 42.5 47.5 40.3 48.6C37.7 50 34.7 50.7 31.6 50.6C28.5 50.5 25.4 49.6 22.7 47.9C20 46.2 17.6 43.8 15.9 40.9C16 41.1 16.1 41.3 16.1 41.4C19.9 47.7 26.7 51.9 34.6 51.9Z" fill="white"/>
<path d="M42.2 14.9C39.6 12.7 36.3 11.1 32.7 10.5C29.2 9.8 25.4 10.1 21.9 11.3C19 12.3 16.4 13.8 14.1 15.9L10.1 11.9V24.1H22.3L18.2 20C19.7 18.2 21.5 16.6 23.7 15.5C26.3 14.1 29.3 13.4 32.4 13.5C35.5 13.6 38.6 14.5 41.3 16.2C44 17.9 46.4 20.3 48.1 23.2C46.9 20 44.9 17.1 42.2 14.9Z" fill="#194950"/>
<path opacity="0.1" d="M29.4 12.1C21 12.1 13.7 17 10.1 24H22.3L18.2 19.9C19.7 18.1 21.5 16.5 23.7 15.4C26.3 14 29.3 13.3 32.4 13.4C35.5 13.5 38.6 14.4 41.3 16.1C44 17.8 46.4 20.2 48.1 23.1C48 22.9 47.9 22.7 47.9 22.6C44.1 16.3 37.3 12.1 29.4 12.1Z" fill="#231F20"/>
</g>
<defs>
<clipPath id="clip0_18_9">
<rect width="64" height="64" fill="white"/>
</clipPath>
</defs>
</svg>
