<svg width="40" height="40" viewBox="0 0 40 40" fill="none" xmlns="http://www.w3.org/2000/svg">
<path d="M27.5 11.25C27.3828 11.3662 27.2898 11.5045 27.2264 11.6568C27.1629 11.8091 27.1303 11.9725 27.1303 12.1375C27.1303 12.3025 27.1629 12.4659 27.2264 12.6182C27.2898 12.7705 27.3828 12.9088 27.5 13.025L33.25 18.775H3.825C3.49348 18.775 3.17554 18.9067 2.94112 19.1411C2.7067 19.3755 2.575 19.6935 2.575 20.025C2.575 20.3565 2.7067 20.6745 2.94112 20.9089C3.17554 21.1433 3.49348 21.275 3.825 21.275H33.225L27.5 26.9875C27.2672 27.2217 27.1365 27.5385 27.1365 27.8688C27.1365 28.199 27.2672 28.5158 27.5 28.75C27.7342 28.9828 28.051 29.1135 28.3813 29.1135C28.7115 29.1135 29.0283 28.9828 29.2625 28.75L37.2125 20.8C37.3195 20.6973 37.4046 20.5741 37.4628 20.4377C37.521 20.3013 37.5509 20.1545 37.5509 20.0062C37.5509 19.858 37.521 19.7112 37.4628 19.5748C37.4046 19.4384 37.3195 19.3152 37.2125 19.2125L29.275 11.25C29.1588 11.1328 29.0205 11.0398 28.8682 10.9764C28.7159 10.9129 28.5525 10.8803 28.3875 10.8803C28.2225 10.8803 28.0591 10.9129 27.9068 10.9764C27.7545 11.0398 27.6162 11.1328 27.5 11.25Z" fill="white"/>
</svg>
