<svg width="40" height="40" viewBox="0 0 40 40" fill="none" xmlns="http://www.w3.org/2000/svg">
<g clip-path="url(#clip0_1_4)">
<path fill-rule="evenodd" clip-rule="evenodd" d="M20 40C16.0444 40 12.1776 38.827 8.88861 36.6294C5.59963 34.4318 3.03619 31.3082 1.52244 27.6537C0.00868638 23.9992 -0.387408 19.9778 0.384296 16.0982C1.156 12.2186 3.06084 8.65493 5.85789 5.85788C8.65494 3.06083 12.2186 1.15601 16.0982 0.384307C19.9778 -0.387398 23.9992 0.00865634 27.6537 1.52241C31.3082 3.03616 34.4318 5.59962 36.6294 8.8886C38.827 12.1776 40 16.0444 40 20C40 25.3043 37.8929 30.3914 34.1421 34.1421C30.3914 37.8929 25.3043 40 20 40ZM8.676 24.51C8.24592 24.0752 8.0047 23.4883 8.0047 22.8767C8.0047 22.2651 8.24592 21.6782 8.676 21.2433L9.85337 20.0727C10.0536 19.8706 10.2923 19.7109 10.5555 19.6029C10.8186 19.4949 11.1008 19.4409 11.3852 19.4441C11.6697 19.4473 11.9505 19.5075 12.2112 19.6214C12.4719 19.7352 12.707 19.9002 12.9027 20.1067L14.9827 22.2647C15.0819 22.3693 15.2013 22.4527 15.3338 22.5096C15.4662 22.5666 15.6089 22.5959 15.753 22.5959C15.8972 22.5959 16.0399 22.5666 16.1723 22.5096C16.3047 22.4527 16.4242 22.3693 16.5233 22.2647L27.1234 11.338C27.3204 11.1301 27.5575 10.9642 27.8204 10.8503C28.0832 10.7363 28.3664 10.6768 28.6529 10.6751C28.9393 10.6734 29.2232 10.7297 29.4873 10.8405C29.7515 10.9513 29.9905 11.1144 30.19 11.32L31.3334 12.476C31.7529 12.909 31.9876 13.4884 31.9876 14.0913C31.9876 14.6943 31.7529 15.2736 31.3334 15.7067L17.2607 30.0073C17.0643 30.2106 16.8293 30.3727 16.5695 30.4839C16.3096 30.5952 16.0302 30.6535 15.7475 30.6553C15.4649 30.6572 15.1847 30.6026 14.9234 30.4948C14.6622 30.3869 14.4251 30.228 14.226 30.0273L8.676 24.51Z" fill="#194950"/>
</g>
<defs>
<clipPath id="clip0_1_4">
<rect width="40" height="40" fill="white"/>
</clipPath>
</defs>
</svg>
