<svg width="20" height="20" viewBox="0 0 20 20" fill="none" xmlns="http://www.w3.org/2000/svg">
<path d="M13.6223 17.5805C13.0112 17.5759 12.4028 17.4992 11.8098 17.352C9.76172 16.8578 7.65273 15.6043 5.87226 13.8223C4.09179 12.0402 2.83672 9.93086 2.34257 7.88477C1.82226 5.73242 2.19336 3.89102 3.38633 2.69805L3.72695 2.35742C4.036 2.049 4.45478 1.87577 4.8914 1.87577C5.32802 1.87577 5.74681 2.049 6.05586 2.35742L8.01328 4.31445C8.3219 4.6234 8.49525 5.04222 8.49525 5.47891C8.49525 5.91559 8.3219 6.33442 8.01328 6.64336L6.85703 7.79922C7.41132 8.77188 8.16523 9.74531 9.05625 10.6363C9.94726 11.5273 10.9215 12.2816 11.8937 12.8359L13.0496 11.6797C13.2025 11.5267 13.384 11.4054 13.5838 11.3226C13.7836 11.2398 13.9978 11.1972 14.2141 11.1972C14.4303 11.1972 14.6445 11.2398 14.8443 11.3226C15.0441 11.4054 15.2256 11.5267 15.3785 11.6797L17.3355 13.6367C17.6442 13.9455 17.8176 14.3643 17.8176 14.801C17.8176 15.2376 17.6442 15.6564 17.3355 15.9652L16.9945 16.3059C16.1535 17.1484 14.9894 17.5805 13.6223 17.5805ZM4.8914 3.04688C4.82903 3.04657 4.76723 3.05871 4.70961 3.08259C4.652 3.10647 4.59972 3.1416 4.55586 3.18594L4.21484 3.52656C3.32148 4.41992 3.06054 5.87031 3.48007 7.6082C3.92422 9.44922 5.06757 11.3621 6.69922 12.9934C8.33086 14.6246 10.2434 15.7668 12.0848 16.2125C13.823 16.632 15.2727 16.3711 16.166 15.4777L16.5066 15.1371C16.5956 15.048 16.6456 14.9273 16.6456 14.8014C16.6456 14.6755 16.5956 14.5547 16.5066 14.4656L14.55 12.5086C14.4609 12.4196 14.3402 12.3696 14.2143 12.3696C14.0883 12.3696 13.9676 12.4196 13.8785 12.5086L12.4133 13.9738C12.3254 14.0618 12.2117 14.1195 12.0888 14.1386C11.9659 14.1577 11.8402 14.1372 11.7297 14.0801C10.5285 13.459 9.31758 12.5547 8.22773 11.4648C7.13789 10.375 6.23554 9.16485 5.61289 7.96367C5.55571 7.85324 5.53514 7.72748 5.55418 7.60459C5.57321 7.4817 5.63084 7.36804 5.71875 7.28008L7.18437 5.81485C7.27337 5.72578 7.32336 5.60502 7.32336 5.4791C7.32336 5.35319 7.27337 5.23243 7.18437 5.14336L5.22734 3.18594C5.18334 3.14168 5.13098 3.10659 5.07332 3.08272C5.01565 3.05885 4.95382 3.04667 4.8914 3.04688Z" fill="#57E178"/>
<path d="M14.248 10.5363C14.0926 10.5363 13.9436 10.4746 13.8337 10.3647C13.7238 10.2548 13.6621 10.1058 13.6621 9.95039C13.661 8.92247 13.2522 7.93697 12.5253 7.21009C11.7985 6.4832 10.8131 6.07429 9.78516 6.07305C9.62976 6.07305 9.48072 6.01131 9.37084 5.90143C9.26095 5.79155 9.19922 5.64251 9.19922 5.48711C9.19922 5.33171 9.26095 5.18267 9.37084 5.07279C9.48072 4.96291 9.62976 4.90117 9.78516 4.90117C12.5691 4.90117 14.834 7.1668 14.834 9.95039C14.834 10.1058 14.7723 10.2548 14.6624 10.3647C14.5525 10.4746 14.4034 10.5363 14.248 10.5363Z" fill="#57E178"/>
<path d="M16.7246 10.5363C16.5692 10.5363 16.4202 10.4746 16.3103 10.3647C16.2004 10.2548 16.1387 10.1058 16.1387 9.95039C16.1387 6.44688 13.2871 3.59649 9.78516 3.59649C9.62976 3.59649 9.48072 3.53475 9.37084 3.42487C9.26095 3.31498 9.19922 3.16595 9.19922 3.01055C9.19922 2.85515 9.26095 2.70611 9.37084 2.59623C9.48072 2.48634 9.62976 2.42461 9.78516 2.42461C13.9348 2.42461 17.3105 5.80078 17.3105 9.95039C17.3105 10.1058 17.2488 10.2548 17.1389 10.3647C17.029 10.4746 16.88 10.5363 16.7246 10.5363Z" fill="#57E178"/>
</svg>
