<svg width="16" height="17" viewBox="0 0 16 17" fill="none" xmlns="http://www.w3.org/2000/svg">
<path d="M11.6223 16.5805C11.0112 16.5759 10.4028 16.4992 9.80976 16.352C7.76172 15.8578 5.65273 14.6043 3.87226 12.8223C2.09179 11.0402 0.836716 8.93086 0.342575 6.88477C-0.177738 4.73242 0.193356 2.89102 1.38633 1.69805L1.72695 1.35742C2.036 1.049 2.45478 0.875774 2.8914 0.875774C3.32802 0.875774 3.74681 1.049 4.05586 1.35742L6.01328 3.31445C6.3219 3.6234 6.49525 4.04222 6.49525 4.47891C6.49525 4.91559 6.3219 5.33442 6.01328 5.64336L4.85703 6.79922C5.41132 7.77188 6.16523 8.74531 7.05625 9.63633C7.94726 10.5273 8.92148 11.2816 9.89375 11.8359L11.0496 10.6797C11.2025 10.5267 11.384 10.4054 11.5838 10.3226C11.7836 10.2398 11.9978 10.1972 12.2141 10.1972C12.4303 10.1972 12.6445 10.2398 12.8443 10.3226C13.0441 10.4054 13.2256 10.5267 13.3785 10.6797L15.3355 12.6367C15.6442 12.9455 15.8176 13.3643 15.8176 13.801C15.8176 14.2376 15.6442 14.6564 15.3355 14.9652L14.9945 15.3059C14.1535 16.1484 12.9894 16.5805 11.6223 16.5805ZM2.8914 2.04688C2.82903 2.04657 2.76723 2.05871 2.70961 2.08259C2.652 2.10647 2.59972 2.1416 2.55586 2.18594L2.21484 2.52656C1.32148 3.41992 1.06054 4.87031 1.48007 6.6082C1.92422 8.44922 3.06757 10.3621 4.69922 11.9934C6.33086 13.6246 8.24336 14.7668 10.0848 15.2125C11.823 15.632 13.2727 15.3711 14.166 14.4777L14.5066 14.1371C14.5956 14.048 14.6456 13.9273 14.6456 13.8014C14.6456 13.6755 14.5956 13.5547 14.5066 13.4656L12.55 11.5086C12.4609 11.4196 12.3402 11.3696 12.2143 11.3696C12.0883 11.3696 11.9676 11.4196 11.8785 11.5086L10.4133 12.9738C10.3254 13.0618 10.2117 13.1195 10.0888 13.1386C9.96594 13.1577 9.84016 13.1372 9.72968 13.0801C8.52851 12.459 7.31758 11.5547 6.22773 10.4648C5.13789 9.375 4.23554 8.16485 3.61289 6.96367C3.55571 6.85324 3.53514 6.72748 3.55418 6.60459C3.57321 6.4817 3.63084 6.36804 3.71875 6.28008L5.18437 4.81485C5.27337 4.72578 5.32336 4.60502 5.32336 4.4791C5.32336 4.35319 5.27337 4.23243 5.18437 4.14336L3.22734 2.18594C3.18334 2.14168 3.13098 2.10659 3.07332 2.08272C3.01565 2.05885 2.95382 2.04667 2.8914 2.04688Z" fill="#57E178"/>
<path d="M12.248 9.53633C12.0926 9.53633 11.9436 9.4746 11.8337 9.36471C11.7238 9.25483 11.6621 9.10579 11.6621 8.95039C11.661 7.92247 11.2522 6.93697 10.5253 6.21009C9.79853 5.4832 8.81307 5.07429 7.78516 5.07305C7.62976 5.07305 7.48072 5.01131 7.37084 4.90143C7.26095 4.79155 7.19922 4.64251 7.19922 4.48711C7.19922 4.33171 7.26095 4.18267 7.37084 4.07279C7.48072 3.96291 7.62976 3.90117 7.78516 3.90117C10.5691 3.90117 12.834 6.1668 12.834 8.95039C12.834 9.10579 12.7723 9.25483 12.6624 9.36471C12.5525 9.4746 12.4034 9.53633 12.248 9.53633Z" fill="#57E178"/>
<path d="M14.7246 9.53633C14.5692 9.53633 14.4202 9.4746 14.3103 9.36471C14.2004 9.25483 14.1387 9.10579 14.1387 8.95039C14.1387 5.44688 11.2871 2.59649 7.78516 2.59649C7.62976 2.59649 7.48072 2.53475 7.37084 2.42487C7.26095 2.31498 7.19922 2.16595 7.19922 2.01055C7.19922 1.85515 7.26095 1.70611 7.37084 1.59623C7.48072 1.48634 7.62976 1.42461 7.78516 1.42461C11.9348 1.42461 15.3105 4.80078 15.3105 8.95039C15.3105 9.10579 15.2488 9.25483 15.1389 9.36471C15.029 9.4746 14.88 9.53633 14.7246 9.53633Z" fill="#57E178"/>
</svg>
