<svg width="20" height="20" viewBox="0 0 20 20" fill="none" xmlns="http://www.w3.org/2000/svg">
<path d="M18.7555 5.14825V4.73051C18.7555 3.93799 18.107 3.28952 17.3145 3.28952L17.3141 3.28991L17.3132 3.29054L17.3145 3.28952H2.60888L2.61456 3.29414L2.60888 3.28991C1.81636 3.28991 1.16786 3.93837 1.16786 4.73093V14.5748C1.16786 15.3673 1.81633 16.0157 2.60888 16.0157H3.12187H16.7578C18.2694 15.9982 18.7235 15.6238 18.7578 14.5759L18.7555 5.14825ZM16.2409 3.64225L9.93837 8.28465L3.67686 3.64225H16.2409ZM3.47823 7.24941L9.31626 11.2707L9.32211 11.2748L3.47488 15.3406L3.47823 7.24941ZM3.62913 15.663L9.63093 11.4897L9.73622 11.5629C9.79675 11.605 9.86723 11.6261 9.9377 11.6261C10.0076 11.6261 10.2472 11.4886 10.2472 11.4886L16.2506 15.663H3.62913ZM16.4012 15.3381L10.5575 11.2748L13.8165 9.02994L16.4012 7.24963V15.3381Z" fill="#57E178"/>
</svg>
