<svg width="18" height="14" viewBox="0 0 18 14" fill="none" xmlns="http://www.w3.org/2000/svg">
<path d="M17.7555 2.14825V1.73051C17.7555 0.937986 17.107 0.28952 16.3145 0.28952L16.3141 0.289908L16.3132 0.290543L16.3145 0.28952H1.60888L1.61456 0.294141L1.60888 0.289908C0.816363 0.289908 0.167862 0.938374 0.167862 1.73093V11.5748C0.167862 12.3673 0.816328 13.0157 1.60888 13.0157H2.12187H15.7578C17.2694 12.9982 17.7235 12.6238 17.7578 11.5759L17.7555 2.14825ZM15.2409 0.642254L8.93837 5.28465L2.67686 0.642254H15.2409ZM2.47823 4.24941L8.31626 8.27072L8.32211 8.27478L2.47488 12.3406L2.47823 4.24941ZM2.62913 12.663L8.63093 8.48966L8.73622 8.56292C8.79675 8.60504 8.86723 8.62613 8.9377 8.62613C9.00762 8.62613 9.24716 8.48857 9.24716 8.48857L15.2506 12.663H2.62913ZM15.4012 12.3381L9.55749 8.27481L12.8165 6.02994L15.4012 4.24963V12.3381Z" fill="#57E178"/>
</svg>
